<svg width="25" height="24" viewBox="0 0 25 24" fill="none" xmlns="http://www.w3.org/2000/svg">
<path fill-rule="evenodd" clip-rule="evenodd" d="M4.80005 11.9999C4.80005 12.5499 5.00005 13.0199 5.39005 13.4099C5.78005 13.8099 6.25005 13.9999 6.79005 13.9999C7.35005 13.9999 7.82005 13.7999 8.21005 13.4099C8.61005 13.0199 8.80005 12.5499 8.80005 11.9999C8.80005 11.4499 8.60005 10.9799 8.20005 10.5899C8.01991 10.4032 7.80397 10.2547 7.56515 10.1534C7.32632 10.052 7.0695 9.9998 6.81005 9.99994C6.26005 9.99994 5.79005 10.1999 5.40005 10.5899C5.00005 10.9799 4.80005 11.4499 4.80005 11.9999ZM10.41 11.9999C10.41 12.5499 10.61 13.0199 10.99 13.4099C11.39 13.8099 11.86 13.9999 12.41 13.9999C12.95 13.9999 13.43 13.7999 13.81 13.4099C14.21 13.0199 14.41 12.5499 14.41 11.9999C14.41 11.4499 14.21 10.9799 13.81 10.5899C13.6287 10.402 13.4112 10.2528 13.1705 10.1514C12.9299 10.05 12.6712 9.99845 12.41 9.99994C11.86 9.99994 11.37 10.1999 10.99 10.5899C10.59 10.9799 10.41 11.4499 10.41 11.9999ZM16.01 11.9999C16.01 12.5499 16.21 13.0199 16.58 13.4099C16.98 13.8099 17.46 13.9999 18.01 13.9999C18.58 13.9999 19.05 13.7999 19.4401 13.4099C19.8301 13.0199 20.01 12.5499 20.01 11.9999C20.01 11.4499 19.8101 10.9799 19.4401 10.5899C19.2553 10.3983 19.0328 10.2469 18.7867 10.1454C18.5407 10.0439 18.2762 9.99434 18.01 9.99994C17.46 9.99994 16.97 10.1999 16.58 10.5899C16.2 10.9799 16.01 11.4499 16.01 11.9999Z" fill="#6B6B6B"/>
</svg>
